<?xml version="1.0" encoding="utf-8"?>
<!-- Generator: Adobe Illustrator 19.1.1, SVG Export Plug-In . SVG Version: 6.00 Build 0)  -->
<svg version="1.1" id="Layer_1" xmlns="http://www.w3.org/2000/svg" xmlns:xlink="http://www.w3.org/1999/xlink" x="0px" y="0px"
	 viewBox="0 0 1200 1200" enable-background="new 0 0 1200 1200" xml:space="preserve">
<g>
	<g>
		<polygon fill="#9AA1A7" points="288.725,345.826 205.736,345.826 122.747,345.826 122.747,290.877 122.747,235.928 
			205.736,235.928 288.725,235.928 288.725,290.877 		"/>
		<path fill="#2E4C59" d="M288.725,358.958h-82.989h-82.989c-3.626,0-6.909-1.47-9.285-3.846c-2.376-2.376-3.846-5.659-3.846-9.285
			v-54.949v-54.949c0-3.626,1.47-6.909,3.846-9.285c2.376-2.376,5.659-3.846,9.285-3.846h82.989h82.989
			c3.626,0,6.909,1.47,9.285,3.846c2.376,2.376,3.846,5.659,3.846,9.285v54.949v54.949c0,3.626-1.47,6.909-3.846,9.285
			C295.634,357.488,292.351,358.958,288.725,358.958z M135.878,332.696h69.858h69.858v-41.818V249.06h-69.858h-69.858v41.818
			V332.696z"/>
	</g>
	<g>
		<path fill="#EAEEEF" d="M1097.161,921.007H600H102.838c-10.965,0-20.892-4.445-28.078-11.63
			c-7.186-7.186-11.63-17.113-11.63-28.078V616.04V350.781c0-10.965,4.444-20.892,11.63-28.078
			c7.186-7.186,17.113-11.63,28.078-11.63h99.431h99.431c10.55,0,20.179-4.126,27.312-10.885s11.771-16.152,12.338-26.687v0v0
			c0.567-10.535,5.205-19.928,12.338-26.687c7.133-6.759,16.762-10.885,27.312-10.885h358.08h358.08
			c10.965,0,20.892,4.444,28.078,11.63c7.186,7.186,11.63,17.113,11.63,28.078v302.832v302.832c0,10.965-4.444,20.892-11.63,28.078
			C1118.053,916.563,1108.126,921.007,1097.161,921.007z"/>
		<path fill="#2E4C59" d="M1097.162,934.137H600H102.838c-14.568,0-27.778-5.926-37.345-15.493
			C55.925,909.076,50,895.867,50,881.299V616.04V350.782c0-14.568,5.925-27.778,15.493-37.347s22.777-15.494,37.345-15.494h99.431
			h99.431c7.062,0,13.507-2.761,18.282-7.285c4.775-4.524,7.878-10.81,8.257-17.86c0.757-14.018,6.929-26.517,16.421-35.512
			s22.305-14.485,36.343-14.485h358.08h358.08c14.568,0,27.778,5.925,37.345,15.493S1150,261.069,1150,275.637v302.831v302.831
			c0,14.568-5.926,27.778-15.493,37.345C1124.939,928.211,1111.73,934.137,1097.162,934.137z M102.838,324.202
			c-7.327,0-13.971,2.981-18.784,7.793c-4.812,4.813-7.793,11.458-7.793,18.786V616.04v265.258c0,7.327,2.981,13.971,7.793,18.784
			c4.812,4.813,11.457,7.793,18.784,7.793H600h497.162c7.327,0,13.971-2.981,18.784-7.793c4.812-4.812,7.793-11.457,7.793-18.784
			V578.468V275.637c0-7.327-2.981-13.971-7.793-18.784c-4.813-4.812-11.457-7.793-18.784-7.793h-358.08h-358.08
			c-7.06,0-13.505,2.761-18.28,7.286c-4.775,4.524-7.879,10.811-8.259,17.863c-0.754,14.017-6.926,26.515-16.419,35.51
			c-9.493,8.994-22.307,14.484-36.345,14.484h-99.431H102.838z"/>
	</g>
	<g opacity="0.35">
		<path fill="#2E4C59" d="M63.131,463.412v20.602v20.602c0,7.905,4.444,15.061,11.63,20.241c7.186,5.18,17.113,8.384,28.078,8.384
			h497.161h497.161c10.965,0,20.892-3.204,28.078-8.384c7.186-5.18,11.63-12.336,11.63-20.241v-20.602v-20.602H600H63.131z"/>
		<path fill="#2E4C59" d="M1097.162,546.373H600H102.838c-14.814,0-28.024-4.586-37.53-12.098S50,516.324,50,504.616v-20.603
			v-20.603c0-3.626,1.47-6.909,3.846-9.285c2.376-2.376,5.659-3.846,9.285-3.846H600h536.869c3.626,0,6.909,1.47,9.285,3.846
			c2.376,2.376,3.846,5.659,3.846,9.285v20.603v20.603c0,11.707-5.802,22.147-15.308,29.659S1111.976,546.373,1097.162,546.373z
			 M76.261,476.542v14.037v14.037c0,3.657,2.842,7.531,7.584,10.49c4.743,2.96,11.387,5.005,18.992,5.005H600h497.162
			c7.605,0,14.25-2.045,18.992-5.005c4.743-2.96,7.584-6.833,7.584-10.49v-14.037v-14.037H600H76.261z"/>
	</g>
	<g>
		<path fill="#ABE1ED" d="M1136.869,459.8v-92.082v-92.082c0-10.965-4.444-20.892-11.63-28.078
			c-7.186-7.186-17.113-11.63-28.078-11.63h-358.08h-358.08c-10.55,0-20.179,4.126-27.312,10.885
			c-7.133,6.759-11.771,16.152-12.338,26.687c-0.567,10.535-5.205,19.928-12.338,26.687s-16.762,10.885-27.312,10.885h-99.431
			h-99.431c-10.965,0-20.892,4.445-28.078,11.63c-7.186,7.186-11.63,17.113-11.63,28.078v54.51v54.51H600H1136.869z"/>
		<path fill="#2E4C59" d="M1136.869,472.931H600H63.131c-3.626,0-6.909-1.47-9.285-3.846S50,463.426,50,459.8v-54.51v-54.51
			c0-14.568,5.925-27.778,15.493-37.345c9.568-9.568,22.777-15.493,37.345-15.493h99.431h99.431c7.062,0,13.507-2.761,18.282-7.285
			c4.775-4.524,7.878-10.81,8.257-17.86c0.757-14.018,6.929-26.517,16.421-35.512s22.305-14.485,36.343-14.485h358.08h358.08
			c14.568,0,27.778,5.925,37.345,15.493S1150,261.069,1150,275.637v92.082V459.8c0,3.626-1.469,6.909-3.846,9.285
			S1140.496,472.931,1136.869,472.931z M76.261,446.669H600h523.739v-85.516v-85.516c0-7.327-2.981-13.971-7.793-18.784
			c-4.813-4.812-11.457-7.793-18.784-7.793h-358.08h-358.08c-7.06,0-13.505,2.761-18.28,7.286
			c-4.775,4.524-7.879,10.811-8.259,17.863c-0.754,14.017-6.926,26.515-16.419,35.51c-9.493,8.994-22.307,14.484-36.345,14.484
			h-99.431h-99.431c-7.327,0-13.971,2.981-18.784,7.793c-4.812,4.812-7.793,11.457-7.793,18.784v47.945V446.669z"/>
	</g>
	<g>
		<path fill="#ABE1ED" d="M908.103,655.967c0,85.08-34.486,162.106-90.241,217.862S685.08,964.07,600,964.07
			s-162.106-34.486-217.862-90.241s-90.241-132.781-90.241-217.862s34.486-162.106,90.241-217.862S514.919,347.864,600,347.864
			s162.106,34.486,217.862,90.241S908.103,570.887,908.103,655.967z"/>
		<path fill="#2E4C59" d="M600,977.202c-88.564,0-168.873-36.027-227.04-94.195s-94.193-138.477-94.193-227.041
			s36.026-168.873,94.193-227.04S511.436,334.733,600,334.733s168.873,36.026,227.04,94.193
			c58.167,58.167,94.193,138.476,94.193,227.04s-36.026,168.873-94.193,227.041C768.873,941.175,688.564,977.202,600,977.202z
			 M600,360.994c-81.325,0-155.067,33.081-208.479,86.492s-86.492,127.155-86.492,208.479s33.081,155.068,86.492,208.481
			C444.933,917.859,518.675,950.94,600,950.94s155.067-33.081,208.479-86.494c53.412-53.412,86.492-127.156,86.492-208.481
			s-33.081-155.067-86.492-208.479C755.067,394.075,681.325,360.994,600,360.994z"/>
	</g>
	<g>
		<path fill="#9AA1A7" d="M861.173,655.967c0,72.121-29.233,137.414-76.496,184.677C737.414,887.907,672.121,917.14,600,917.14
			s-137.414-29.233-184.677-76.496c-47.263-47.263-76.496-112.556-76.496-184.677s29.233-137.414,76.496-184.677
			S527.879,394.794,600,394.794s137.414,29.233,184.677,76.496C831.94,518.553,861.173,583.846,861.173,655.967z"/>
		<path fill="#2E4C59" d="M600,930.272c-75.626,0-144.202-30.764-193.871-80.434c-49.669-49.67-80.432-118.247-80.432-193.873
			s30.763-144.202,80.432-193.871S524.374,381.662,600,381.662s144.202,30.763,193.871,80.432s80.432,118.245,80.432,193.871
			s-30.763,144.203-80.432,193.873C744.202,899.509,675.626,930.272,600,930.272z M600,407.924
			c-68.385,0-130.395,27.818-175.31,72.732s-72.733,106.925-72.733,175.31c0,68.386,27.818,130.397,72.733,175.312
			c44.914,44.915,106.925,72.733,175.31,72.733s130.395-27.818,175.31-72.733c44.914-44.915,72.732-106.926,72.732-175.312
			c0-68.385-27.818-130.395-72.732-175.31C730.395,435.742,668.385,407.924,600,407.924z"/>
	</g>
	<g>
		<path fill="#2E4C59" d="M801.728,655.967c0,55.706-22.579,106.138-59.085,142.644S655.705,857.696,600,857.696
			s-106.138-22.579-142.644-59.085s-59.085-86.938-59.085-142.644c0-55.706,22.579-106.138,59.085-142.644
			S544.294,454.239,600,454.239s106.138,22.579,142.644,59.085S801.728,600.261,801.728,655.967z"/>
		<path fill="#2E4C59" d="M600,870.827c-59.237,0-112.952-24.097-151.857-63.003s-63.002-92.622-63.002-151.859
			c0-59.237,24.096-112.952,63.002-151.857s92.62-63.002,151.857-63.002s112.952,24.096,151.857,63.002s63.002,92.62,63.002,151.857
			c0,59.237-24.096,112.952-63.002,151.859S659.237,870.827,600,870.827z M600,467.368c-51.997,0-99.147,21.151-133.297,55.301
			s-55.301,81.299-55.301,133.297s21.151,99.147,55.301,133.298S548.003,844.566,600,844.566s99.147-21.151,133.297-55.302
			c34.15-34.151,55.301-81.301,55.301-133.298s-21.151-99.146-55.301-133.297C699.147,488.519,651.997,467.368,600,467.368z"/>
	</g>
	<path fill="#FFFFFF" d="M452.269,669.097c-3.626,0-6.909-1.47-9.285-3.846s-3.846-5.659-3.846-9.285
		c0-44.349,18.041-84.564,47.169-113.692c29.128-29.127,69.343-47.167,113.693-47.167c3.626,0,6.909,1.47,9.285,3.846
		s3.846,5.659,3.846,9.285c0,3.626-1.47,6.909-3.846,9.285s-5.659,3.846-9.285,3.846c-37.11,0-70.76,15.095-95.132,39.467
		c-24.373,24.372-39.468,58.022-39.468,95.13c0,3.626-1.47,6.909-3.846,9.285C459.178,667.627,455.896,669.097,452.269,669.097z"/>
	<path fill="#2E4C59" d="M1076.104,876.898c-3.626,0-6.909-1.47-9.285-3.846s-3.846-5.659-3.846-9.285v-26.899V809.97
		c0-3.626,1.469-6.909,3.846-9.285s5.659-3.846,9.285-3.846c3.626,0,6.909,1.469,9.285,3.846s3.846,5.659,3.846,9.285v26.899v26.899
		c0,3.626-1.469,6.909-3.846,9.285S1079.73,876.898,1076.104,876.898z"/>
	<path fill="#2E4C59" d="M1027.525,876.898c-3.626,0-6.909-1.47-9.285-3.846s-3.846-5.659-3.846-9.285v-26.899V809.97
		c0-3.626,1.469-6.909,3.846-9.285s5.659-3.846,9.285-3.846c3.626,0,6.909,1.469,9.285,3.846s3.846,5.659,3.846,9.285v26.899v26.899
		c0,3.626-1.469,6.909-3.846,9.285S1031.152,876.898,1027.525,876.898z"/>
	<path fill="#2E4C59" d="M978.947,876.898c-3.626,0-6.909-1.47-9.285-3.846s-3.846-5.659-3.846-9.285v-26.899V809.97
		c0-3.626,1.469-6.909,3.846-9.285s5.659-3.846,9.285-3.846s6.909,1.469,9.285,3.846c2.376,2.376,3.846,5.659,3.846,9.285v26.899
		v26.899c0,3.626-1.47,6.909-3.846,9.285C985.856,875.428,982.573,876.898,978.947,876.898z"/>
	<g opacity="0.35">
		<polygon fill="#2E4C59" points="1056.875,416.836 982.489,416.836 908.103,416.836 908.103,382.26 908.103,347.684 
			982.489,347.684 1056.875,347.684 1056.875,382.26 		"/>
		<path fill="#2E4C59" d="M1056.875,429.966h-74.386h-74.386c-3.626,0-6.909-1.47-9.285-3.846s-3.846-5.659-3.846-9.285V382.26
			v-34.576c0-3.626,1.47-6.909,3.846-9.285s5.659-3.846,9.285-3.846h74.386h74.386c3.626,0,6.909,1.47,9.285,3.846
			s3.846,5.659,3.846,9.285v34.576v34.576c0,3.626-1.469,6.909-3.846,9.285S1060.501,429.966,1056.875,429.966z M921.233,403.705
			h61.255h61.255V382.26v-21.445h-61.255h-61.255v21.445V403.705z"/>
	</g>
	<g>
		<polygon fill="#FFFFFF" points="1056.875,386.475 982.489,386.475 908.103,386.475 908.103,351.899 908.103,317.322 
			982.489,317.322 1056.875,317.322 1056.875,351.899 		"/>
		<path fill="#2E4C59" d="M1056.875,399.607h-74.386h-74.386c-3.626,0-6.909-1.47-9.285-3.846s-3.846-5.659-3.846-9.285v-34.577
			v-34.577c0-3.626,1.47-6.909,3.846-9.285s5.659-3.846,9.285-3.846h74.386h74.386c3.626,0,6.909,1.47,9.285,3.846
			s3.846,5.659,3.846,9.285v34.577v34.577c0,3.626-1.469,6.909-3.846,9.285S1060.501,399.607,1056.875,399.607z M921.233,373.345
			h61.255h61.255v-21.446v-21.446h-61.255h-61.255v21.446V373.345z"/>
	</g>
	<path fill="#2E4C59" d="M288.725,395.39h-82.989h-82.989c-3.626,0-6.909-1.47-9.285-3.846c-2.376-2.376-3.846-5.659-3.846-9.285
		c0-3.626,1.47-6.909,3.846-9.285c2.376-2.376,5.659-3.846,9.285-3.846h82.989h82.989c3.626,0,6.909,1.47,9.285,3.846
		s3.846,5.659,3.846,9.285c0,3.626-1.47,6.909-3.846,9.285S292.351,395.39,288.725,395.39z"/>
	<path fill="#2E4C59" d="M155.415,876.898c-11.037,0-21.044-4.489-28.293-11.738c-7.249-7.248-11.738-17.255-11.738-28.291
		c0-11.037,4.489-21.044,11.738-28.293c7.249-7.248,17.256-11.738,28.293-11.738c11.035,0,21.042,4.489,28.291,11.738
		c7.248,7.249,11.738,17.256,11.738,28.293c0,11.035-4.489,21.042-11.738,28.291C176.458,872.409,166.45,876.898,155.415,876.898z
		 M155.415,823.1c-3.796,0-7.238,1.544-9.731,4.038c-2.493,2.493-4.038,5.936-4.038,9.731s1.545,7.237,4.038,9.73
		c2.493,2.493,5.936,4.037,9.731,4.037s7.237-1.544,9.73-4.037c2.493-2.493,4.037-5.934,4.037-9.73s-1.544-7.238-4.037-9.731
		C162.652,824.645,159.211,823.1,155.415,823.1z"/>
</g>
</svg>
